<svg xmlns="http://www.w3.org/2000/svg" viewBox="0 0.025 62.68 62.705" width="62.68mm" height="62.705mm">
  <defs>
    <linearGradient id="d" x1="412.97501" x2="412.97501" y1="237.60777" y2="59.392235" gradientTransform="matrix(0.35154, 0, 0, 0.35154, -112.09544, -20.8224)" gradientUnits="userSpaceOnUse" href="#a"/>
    <linearGradient id="a">
      <stop offset="0" stop-color="#bdbdbd"/>
      <stop offset="1" stop-color="#fff"/>
    </linearGradient>
    <radialGradient id="e" cx="413.06128" cy="136.81819" r="82.125351" gradientTransform="matrix(0.38143, 0, 0, 0.38143, -124.3409, -25.01457)" gradientUnits="userSpaceOnUse" href="#b"/>
    <linearGradient id="b">
      <stop offset="0" style="stop-color: rgb(237, 113, 76);"/>
      <stop offset="0.5" style="stop-color: rgb(234, 82, 49);"/>
      <stop offset="1" style="stop-color: rgb(209, 44, 15);"/>
    </linearGradient>
  </defs>
  <g transform="matrix(1, 0, 0, 1, -1.7350000143051147, -0.03500000014901161)">
    <path stroke-linecap="round" stroke-linejoin="round" d="M 64.41 31.38 C 64.41 48.68 50.38 62.71 33.08 62.71 C 15.78 62.71 1.76 48.68 1.76 31.38 C 1.76 14.08 15.78 0.06 33.08 0.06 C 50.38 0.06 64.41 14.08 64.41 31.38 Z" paint-order="markers stroke fill" style="stroke-width: 0.05px;" fill="url(#d)"/>
    <path fill="url(#e)" d="M 61.95 31.38 C 61.95 47.33 49.03 60.25 33.08 60.25 C 17.14 60.25 4.21 47.33 4.21 31.38 C 4.21 15.44 17.14 2.51 33.08 2.51 C 49.03 2.51 61.95 15.44 61.95 31.38 L 61.95 31.38 Z" paint-order="markers stroke fill"/>
    <path fill="#f4f2f3" d="M 33.08 4.02 C 32.85 4.02 32.66 4.2 32.66 4.44 L 32.66 9.29 C 32.66 9.53 32.85 9.71 33.08 9.71 C 33.32 9.71 33.5 9.53 33.5 9.29 L 33.5 4.44 C 33.5 4.2 33.32 4.02 33.08 4.02 Z M 30.33 4.19 C 30.3 4.19 30.27 4.19 30.24 4.19 C 30.01 4.22 29.84 4.42 29.87 4.65 L 30.08 6.68 C 30.11 6.92 30.31 7.08 30.54 7.06 C 30.78 7.04 30.94 6.83 30.92 6.6 L 30.71 4.57 C 30.68 4.36 30.52 4.21 30.33 4.19 Z M 35.86 4.19 C 35.66 4.21 35.5 4.36 35.48 4.57 L 35.27 6.6 C 35.24 6.83 35.41 7.04 35.64 7.06 C 35.87 7.09 36.08 6.92 36.1 6.69 L 36.32 4.66 C 36.34 4.42 36.17 4.22 35.94 4.19 C 35.91 4.19 35.88 4.19 35.86 4.19 Z M 27.5 4.6 C 27.47 4.6 27.44 4.6 27.42 4.61 C 27.19 4.66 27.04 4.88 27.09 5.11 L 28.1 9.86 C 28.14 10.09 28.37 10.23 28.6 10.18 C 28.82 10.14 28.97 9.91 28.92 9.68 L 27.91 4.93 C 27.87 4.73 27.7 4.6 27.5 4.6 Z M 38.68 4.6 C 38.49 4.6 38.31 4.74 38.27 4.94 L 37.26 9.69 C 37.21 9.92 37.36 10.14 37.59 10.19 C 37.81 10.24 38.04 10.09 38.08 9.86 L 39.09 5.11 C 39.14 4.89 39 4.66 38.77 4.61 C 38.74 4.61 38.71 4.61 38.68 4.61 L 38.68 4.6 Z M 24.8 5.36 C 24.75 5.36 24.69 5.36 24.63 5.38 C 24.41 5.45 24.29 5.69 24.36 5.91 L 25 7.85 C 25.07 8.08 25.3 8.2 25.53 8.12 C 25.75 8.05 25.87 7.82 25.8 7.59 L 25.17 5.65 C 25.11 5.49 24.96 5.38 24.8 5.36 Z M 41.37 5.36 C 41.21 5.38 41.06 5.49 41 5.65 L 40.37 7.59 C 40.3 7.82 40.42 8.05 40.64 8.13 C 40.87 8.2 41.1 8.08 41.17 7.86 L 41.81 5.91 C 41.88 5.69 41.76 5.45 41.54 5.38 C 41.48 5.36 41.42 5.36 41.37 5.36 Z M 22.13 6.34 C 22.08 6.34 22.02 6.35 21.97 6.38 C 21.76 6.47 21.66 6.72 21.75 6.93 L 23.73 11.37 C 23.82 11.58 24.07 11.68 24.28 11.58 C 24.49 11.49 24.59 11.24 24.5 11.03 L 22.52 6.59 C 22.45 6.43 22.3 6.34 22.13 6.34 Z M 44.07 6.35 C 43.9 6.35 43.75 6.44 43.68 6.6 L 41.7 11.04 C 41.6 11.25 41.7 11.5 41.91 11.59 C 42.12 11.69 42.37 11.59 42.47 11.38 L 44.44 6.95 C 44.54 6.73 44.44 6.49 44.23 6.39 C 44.18 6.37 44.12 6.36 44.07 6.35 Z M 19.65 7.65 C 19.57 7.64 19.49 7.66 19.41 7.71 C 19.21 7.82 19.14 8.08 19.26 8.28 L 20.28 10.05 C 20.4 10.25 20.65 10.32 20.86 10.2 C 21.06 10.09 21.13 9.83 21.01 9.63 L 19.99 7.86 C 19.92 7.73 19.79 7.66 19.65 7.65 Z M 46.51 7.65 C 46.38 7.66 46.25 7.73 46.18 7.86 L 45.16 9.63 C 45.04 9.83 45.11 10.09 45.31 10.2 C 45.51 10.32 45.77 10.25 45.89 10.05 L 46.91 8.28 C 47.02 8.08 46.95 7.82 46.75 7.71 C 46.68 7.66 46.59 7.64 46.51 7.65 Z M 17.25 9.15 C 17.17 9.15 17.09 9.18 17.01 9.23 C 16.83 9.37 16.78 9.63 16.92 9.82 L 19.77 13.75 C 19.91 13.94 20.17 13.98 20.36 13.84 C 20.55 13.71 20.59 13.44 20.45 13.25 L 17.6 9.32 C 17.52 9.21 17.38 9.15 17.25 9.15 Z M 48.95 9.17 C 48.81 9.17 48.68 9.23 48.59 9.35 L 45.74 13.27 C 45.6 13.46 45.64 13.72 45.83 13.86 C 46.02 14 46.28 13.96 46.42 13.77 L 49.27 9.84 C 49.41 9.65 49.37 9.39 49.18 9.25 C 49.11 9.2 49.03 9.18 48.95 9.17 Z M 15.1 10.95 C 14.99 10.95 14.88 10.98 14.79 11.06 C 14.62 11.22 14.61 11.48 14.76 11.66 L 16.13 13.17 C 16.28 13.35 16.55 13.36 16.72 13.21 C 16.9 13.05 16.91 12.78 16.75 12.61 L 15.39 11.09 C 15.31 11.01 15.2 10.96 15.1 10.95 Z M 51.07 10.96 C 50.96 10.96 50.86 11.01 50.78 11.1 L 49.41 12.61 C 49.26 12.79 49.27 13.05 49.45 13.21 C 49.62 13.36 49.88 13.35 50.04 13.18 L 51.41 11.66 C 51.56 11.49 51.55 11.22 51.38 11.07 C 51.29 10.99 51.18 10.95 51.07 10.96 Z M 13.04 12.93 C 12.93 12.94 12.82 12.99 12.74 13.07 C 12.59 13.25 12.6 13.51 12.78 13.67 L 16.38 16.92 C 16.56 17.07 16.82 17.06 16.98 16.89 C 17.13 16.71 17.12 16.45 16.95 16.29 L 13.34 13.04 C 13.25 12.96 13.14 12.93 13.04 12.93 Z M 53.14 12.95 C 53.04 12.94 52.93 12.98 52.84 13.06 L 49.23 16.3 C 49.06 16.46 49.04 16.72 49.2 16.9 C 49.35 17.07 49.62 17.08 49.79 16.93 L 53.4 13.68 C 53.58 13.53 53.59 13.26 53.43 13.09 C 53.36 13 53.25 12.95 53.14 12.95 Z M 11.32 15.14 C 11.19 15.13 11.05 15.19 10.97 15.31 C 10.83 15.5 10.87 15.76 11.06 15.9 L 12.71 17.1 C 12.9 17.24 13.16 17.2 13.3 17.01 C 13.44 16.82 13.39 16.56 13.21 16.42 L 11.55 15.22 C 11.48 15.17 11.4 15.14 11.32 15.14 Z M 54.86 15.15 C 54.78 15.16 54.69 15.18 54.62 15.23 L 52.97 16.43 C 52.78 16.57 52.74 16.83 52.88 17.02 C 53.01 17.21 53.28 17.25 53.46 17.12 L 55.12 15.92 C 55.31 15.78 55.35 15.52 55.21 15.33 C 55.13 15.21 54.99 15.15 54.86 15.15 Z M 9.72 17.49 C 9.58 17.5 9.46 17.57 9.38 17.7 C 9.27 17.9 9.34 18.16 9.54 18.27 L 13.74 20.7 C 13.94 20.82 14.2 20.75 14.32 20.55 C 14.43 20.35 14.37 20.09 14.16 19.97 L 9.96 17.55 C 9.88 17.5 9.8 17.48 9.72 17.49 Z M 56.45 17.49 C 56.37 17.48 56.28 17.5 56.21 17.55 L 52 19.97 C 51.8 20.09 51.73 20.35 51.85 20.55 C 51.96 20.75 52.22 20.82 52.42 20.7 L 56.63 18.27 C 56.83 18.16 56.9 17.9 56.78 17.7 C 56.71 17.57 56.58 17.5 56.45 17.49 Z M 8.51 20 C 8.34 19.99 8.19 20.09 8.12 20.25 C 8.02 20.46 8.12 20.71 8.33 20.8 L 10.19 21.63 C 10.41 21.73 10.65 21.63 10.75 21.42 C 10.84 21.21 10.75 20.96 10.54 20.86 L 8.67 20.03 C 8.62 20.01 8.56 20 8.51 20 Z M 57.67 20.01 C 57.61 20.01 57.56 20.03 57.5 20.05 L 55.64 20.88 C 55.42 20.98 55.33 21.22 55.42 21.44 C 55.52 21.65 55.77 21.74 55.98 21.65 L 57.84 20.82 C 58.06 20.72 58.15 20.48 58.06 20.26 C 57.99 20.1 57.83 20.01 57.67 20.01 Z M 7.43 22.62 C 7.27 22.63 7.12 22.74 7.06 22.9 C 6.99 23.13 7.11 23.36 7.33 23.44 L 11.95 24.94 C 12.17 25.01 12.41 24.89 12.48 24.67 C 12.55 24.45 12.43 24.21 12.21 24.14 L 7.6 22.63 C 7.54 22.62 7.48 22.61 7.43 22.62 Z M 58.74 22.63 C 58.69 22.63 58.63 22.63 58.58 22.65 L 53.96 24.15 C 53.74 24.23 53.62 24.46 53.69 24.68 C 53.76 24.91 54 25.03 54.22 24.95 L 58.84 23.45 C 59.06 23.38 59.18 23.14 59.11 22.92 C 59.05 22.76 58.91 22.65 58.74 22.63 Z M 6.76 25.36 C 6.56 25.36 6.38 25.5 6.34 25.7 C 6.29 25.93 6.44 26.15 6.67 26.2 L 8.66 26.62 C 8.89 26.67 9.11 26.53 9.16 26.3 C 9.21 26.07 9.07 25.85 8.84 25.8 L 6.84 25.37 C 6.81 25.37 6.78 25.37 6.76 25.37 L 6.76 25.36 Z M 59.41 25.37 C 59.38 25.37 59.35 25.37 59.33 25.38 L 57.33 25.8 C 57.1 25.85 56.96 26.07 57 26.3 C 57.05 26.53 57.27 26.67 57.5 26.63 L 59.5 26.2 C 59.73 26.15 59.87 25.93 59.83 25.7 C 59.78 25.5 59.61 25.37 59.41 25.37 Z M 6.25 28.13 C 6.05 28.15 5.89 28.3 5.87 28.51 C 5.85 28.74 6.01 28.94 6.24 28.97 L 11.07 29.48 C 11.3 29.5 11.51 29.34 11.54 29.1 C 11.56 28.87 11.39 28.67 11.16 28.64 L 6.33 28.13 C 6.3 28.13 6.27 28.13 6.25 28.13 Z M 59.92 28.17 C 59.9 28.16 59.87 28.16 59.84 28.17 L 55.01 28.67 C 54.78 28.7 54.61 28.9 54.63 29.13 C 54.66 29.37 54.86 29.53 55.1 29.51 L 59.93 29 C 60.16 28.98 60.32 28.77 60.3 28.54 C 60.28 28.34 60.12 28.19 59.92 28.17 Z M 6.17 30.96 C 5.93 30.96 5.74 31.15 5.74 31.38 C 5.74 31.62 5.93 31.8 6.17 31.8 L 8.21 31.8 C 8.44 31.8 8.63 31.62 8.63 31.38 C 8.63 31.15 8.44 30.96 8.21 30.96 L 6.17 30.96 Z M 57.96 30.96 C 57.73 30.96 57.54 31.15 57.54 31.38 C 57.54 31.62 57.73 31.8 57.96 31.8 L 60 31.8 C 60.23 31.8 60.42 31.62 60.42 31.38 C 60.42 31.15 60.23 30.96 60 30.96 L 57.96 30.96 Z M 11.16 33.26 C 11.13 33.25 11.1 33.25 11.07 33.26 L 6.24 33.76 C 6.01 33.78 5.84 33.99 5.87 34.22 C 5.89 34.45 6.1 34.62 6.33 34.6 L 11.16 34.09 C 11.39 34.07 11.56 33.86 11.53 33.63 C 11.51 33.43 11.35 33.28 11.16 33.26 Z M 55.01 33.29 C 54.81 33.3 54.65 33.46 54.63 33.66 C 54.61 33.89 54.77 34.1 55.01 34.12 L 59.83 34.63 C 60.07 34.66 60.27 34.49 60.3 34.26 C 60.32 34.03 60.15 33.82 59.92 33.8 L 55.09 33.29 C 55.06 33.28 55.04 33.28 55.01 33.29 Z M 8.75 36.13 C 8.72 36.13 8.69 36.13 8.66 36.14 L 6.67 36.56 C 6.44 36.61 6.29 36.83 6.34 37.06 C 6.39 37.29 6.61 37.43 6.84 37.39 L 8.84 36.96 C 9.07 36.91 9.21 36.69 9.16 36.46 C 9.12 36.26 8.94 36.13 8.75 36.13 Z M 57.42 36.13 C 57.22 36.13 57.05 36.27 57 36.47 C 56.95 36.7 57.1 36.92 57.33 36.97 L 59.32 37.39 C 59.55 37.44 59.78 37.29 59.82 37.07 C 59.87 36.84 59.73 36.62 59.5 36.57 L 57.5 36.14 C 57.47 36.14 57.45 36.13 57.42 36.13 Z M 12.11 37.79 C 12.06 37.79 12 37.79 11.95 37.81 L 7.33 39.31 C 7.11 39.38 6.99 39.62 7.06 39.84 C 7.13 40.06 7.37 40.18 7.59 40.11 L 12.21 38.61 C 12.43 38.54 12.55 38.3 12.48 38.08 C 12.42 37.91 12.28 37.81 12.11 37.79 Z M 54.05 37.81 C 53.89 37.82 53.74 37.93 53.68 38.1 C 53.61 38.32 53.73 38.55 53.95 38.63 L 58.57 40.13 C 58.79 40.2 59.03 40.08 59.1 39.86 C 59.17 39.64 59.05 39.4 58.83 39.33 L 54.22 37.83 C 54.16 37.81 54.1 37.8 54.05 37.81 Z M 10.35 41.08 C 10.3 41.08 10.24 41.09 10.19 41.12 L 8.32 41.95 C 8.11 42.04 8.01 42.29 8.11 42.5 C 8.2 42.71 8.45 42.81 8.66 42.72 L 10.53 41.88 C 10.74 41.79 10.84 41.54 10.74 41.33 C 10.67 41.17 10.51 41.08 10.35 41.08 Z M 55.81 41.09 C 55.64 41.09 55.49 41.18 55.42 41.34 C 55.32 41.56 55.42 41.81 55.63 41.9 L 57.49 42.73 C 57.71 42.83 57.96 42.73 58.05 42.52 C 58.15 42.31 58.05 42.06 57.84 41.96 L 55.97 41.13 C 55.92 41.11 55.86 41.1 55.81 41.09 Z M 13.98 42.01 C 13.9 42 13.82 42.02 13.74 42.06 L 9.54 44.49 C 9.34 44.61 9.27 44.86 9.38 45.07 C 9.5 45.27 9.76 45.34 9.96 45.22 L 14.16 42.79 C 14.37 42.68 14.43 42.42 14.32 42.22 C 14.24 42.09 14.12 42.02 13.98 42.01 Z M 52.18 42.01 C 52.05 42.02 51.92 42.09 51.85 42.22 C 51.73 42.42 51.8 42.68 52 42.79 L 56.21 45.22 C 56.41 45.34 56.67 45.27 56.78 45.07 C 56.9 44.86 56.83 44.61 56.63 44.49 L 52.42 42.06 C 52.35 42.02 52.26 42 52.18 42.01 Z M 12.93 45.57 C 12.85 45.57 12.77 45.6 12.7 45.65 L 11.05 46.85 C 10.86 46.99 10.82 47.25 10.95 47.44 C 11.09 47.63 11.35 47.67 11.54 47.53 L 13.2 46.33 C 13.38 46.19 13.43 45.93 13.29 45.74 C 13.2 45.63 13.07 45.56 12.93 45.57 Z M 53.22 45.58 C 53.09 45.58 52.95 45.64 52.87 45.76 C 52.73 45.95 52.77 46.21 52.96 46.35 L 54.61 47.55 C 54.8 47.68 55.06 47.64 55.2 47.45 C 55.34 47.26 55.3 47 55.11 46.86 L 53.45 45.66 C 53.38 45.61 53.3 45.59 53.22 45.58 Z M 16.68 45.73 C 16.57 45.72 16.46 45.76 16.37 45.84 L 12.76 49.08 C 12.59 49.24 12.58 49.5 12.73 49.68 C 12.89 49.85 13.15 49.86 13.33 49.71 L 16.94 46.46 C 17.11 46.31 17.12 46.04 16.97 45.87 C 16.89 45.78 16.79 45.73 16.68 45.73 Z M 49.48 45.74 C 49.37 45.75 49.27 45.79 49.19 45.88 C 49.03 46.05 49.05 46.32 49.22 46.47 L 52.83 49.72 C 53 49.88 53.27 49.86 53.42 49.69 C 53.58 49.52 53.56 49.25 53.39 49.1 L 49.78 45.85 C 49.69 45.77 49.59 45.73 49.48 45.74 Z" paint-order="markers stroke fill"/>
    <g style="transform-origin: 33.08px 33.035px;" transform="matrix(0.70711, -0.70711, 0.70711, 0.70711, 0, 0)">
      <path d="M 33.21 5.02 L 32.99 5.02 C 33.44 5.02 33.8 5.38 33.8 5.83 L 34.77 32.1 C 34.77 32.55 34.41 32.91 33.96 32.91 L 32.24 32.91 C 31.79 32.91 31.43 32.55 31.43 32.1 L 32.4 5.83 C 32.4 5.38 32.76 5.02 33.21 5.02 Z" style="fill: rgba(0, 24, 64); stroke: rgba(0, 24, 64); stroke-width: 1.49999px; transform-box: fill-box; transform-origin: 50% 50%;"/>
      <path d="M 36.71 32.9 C 36.71 34.91 35.09 36.53 33.08 36.53 C 31.07 36.53 29.45 34.91 29.45 32.9 C 29.45 30.89 31.07 29.27 33.08 29.27 C 35.09 29.27 36.71 30.89 36.71 32.9 Z" style="fill: rgba(0, 24, 64); stroke: rgba(0, 24, 64); stroke-width: 1.49999px;"/>
    </g>
    <text style="fill: rgb(255, 255, 255); font-family: Arial, sans-serif; font-weight: 700; white-space: pre; font-size: 3.5px;" x="29.1" y="50.59">KMH</text>
  </g>
</svg>